<svg xmlns="http://www.w3.org/2000/svg" width="1200" height="630" viewBox="0 0 1200 630">
  <defs>
    <linearGradient id="bg" x1="80" y1="40" x2="1130" y2="610" gradientUnits="userSpaceOnUse">
      <stop stop-color="#F7F5F0"/>
      <stop offset=".5" stop-color="#EDF6F3"/>
      <stop offset="1" stop-color="#E9E1F4"/>
    </linearGradient>
    <radialGradient id="halo" cx="0" cy="0" r="1" gradientTransform="translate(930 140) rotate(135) scale(440)">
      <stop stop-color="#8DDDE0" stop-opacity=".75"/>
      <stop offset="1" stop-color="#8DDDE0" stop-opacity="0"/>
    </radialGradient>
  </defs>
  <rect width="1200" height="630" rx="48" fill="url(#bg)"/>
  <rect width="1200" height="630" rx="48" fill="url(#halo)"/>
  <g transform="translate(82 82)">
    <rect width="96" height="96" rx="28" fill="#1E7775"/>
    <g transform="translate(24 24) scale(2)" stroke="#fff" stroke-width="2" stroke-linecap="round" stroke-linejoin="round" fill="none">
      <path d="M12.127 22H5a2 2 0 0 1-2-2V6a2 2 0 0 1 2-2h14a2 2 0 0 1 2 2v5.125"/>
      <path d="M14.62 18.8A2.25 2.25 0 1 1 18 15.836a2.25 2.25 0 1 1 3.38 2.966l-2.626 2.856a.998.998 0 0 1-1.507 0z"/>
      <path d="M16 2v4M3 10h18M8 2v4"/>
    </g>
    <text x="126" y="69" fill="#183432" font-family="Inter, Arial, sans-serif" font-size="54" font-weight="750" letter-spacing="-2">Moodday</text>
  </g>
  <text x="82" y="300" fill="#183432" font-family="Inter, Arial, sans-serif" font-size="66" font-weight="760" letter-spacing="-2">Comprendre vos journées.</text>
  <text x="82" y="382" fill="#1E7775" font-family="Inter, Arial, sans-serif" font-size="66" font-weight="760" letter-spacing="-2">Préparer vos consultations.</text>
  <text x="82" y="475" fill="#51625F" font-family="Inter, Arial, sans-serif" font-size="30">Suivi personnel de l’humeur, du sommeil et des traitements.</text>
  <text x="82" y="530" fill="#51625F" font-family="Inter, Arial, sans-serif" font-size="24">Sans diagnostic ni recommandation médicale.</text>
  <g transform="translate(958 330) rotate(8)">
    <rect width="150" height="224" rx="38" fill="#183432" opacity=".13"/>
    <rect x="-10" y="-10" width="150" height="224" rx="38" fill="#fff" stroke="#1E7775" stroke-width="4"/>
    <rect x="14" y="28" width="102" height="42" rx="18" fill="#D9F1EE"/>
    <rect x="14" y="88" width="102" height="18" rx="9" fill="#C7B8EA"/>
    <rect x="14" y="120" width="74" height="18" rx="9" fill="#8DDDE0"/>
    <circle cx="65" cy="174" r="24" fill="#1E7775"/>
  </g>
</svg>
