<svg xmlns="http://www.w3.org/2000/svg" width="1200" height="400" viewBox="0 0 1200 400">
  <rect width="1200" height="400" rx="64" fill="#F7F5F0"/>
  <rect x="72" y="72" width="256" height="256" rx="72" fill="#1E7775"/>
  <g transform="translate(126 126) scale(6.2)" stroke="#fff" stroke-width="2" stroke-linecap="round" stroke-linejoin="round" fill="none">
    <path d="M12.127 22H5a2 2 0 0 1-2-2V6a2 2 0 0 1 2-2h14a2 2 0 0 1 2 2v5.125"/>
    <path d="M14.62 18.8A2.25 2.25 0 1 1 18 15.836a2.25 2.25 0 1 1 3.38 2.966l-2.626 2.856a.998.998 0 0 1-1.507 0z"/>
    <path d="M16 2v4M3 10h18M8 2v4"/>
  </g>
  <text x="390" y="246" fill="#183432" font-family="Arial, sans-serif" font-size="132" font-weight="700" letter-spacing="-5">Moodday</text>
</svg>
